<svg width="71" height="111" viewBox="0 0 71 111" fill="none" xmlns="http://www.w3.org/2000/svg">
<g filter="url(#filter0_d_2307_441)">
<path d="M35.7222 1.53101C38.6633 2.26112 40.6111 4.07258 40.6111 5.76696C40.6111 8.30853 39.9227 9.1778 38.8333 10.0029C44.0665 14.8674 46.5331 17.9148 49.9444 23.9815C50.8783 27.2912 51.0207 29.1433 49.9444 32.4534L48.1666 37.9602H50.3888C51.6682 38.7437 52.2061 39.2963 52.1666 40.9253C52.269 42.3667 51.8453 42.9887 50.3888 43.8905H49.0555V47.2793C49.0439 48.6618 48.6425 49.0243 47.2777 48.9737H46.3888V61.6815C48.0129 73.1218 50.3128 76.8048 60.1666 83.2848V87.0972C63.565 87.0708 64.8121 87.7914 65.0555 91.3332C65.1509 93.6197 64.8133 94.6665 63.2777 95.9927C65.0439 96.68 65.4999 97.2635 65.4999 98.9579C65.4999 100.652 65.1987 101.289 64.1666 101.499H37.0555" stroke="#DAF1DE" stroke-width="3"/>
<path d="M35.2777 1.53101C32.3365 2.26112 30.3888 4.07258 30.3888 5.76696C30.3888 8.30853 31.0772 9.1778 32.1666 10.0029C26.9334 14.8674 24.4668 17.9148 21.0555 23.9815C20.1216 27.2912 19.9792 29.1433 21.0555 32.4534L22.8333 37.9602H20.6111C19.3317 38.7437 18.7938 39.2963 18.8333 40.9253C18.7309 42.3667 19.1546 42.9887 20.6111 43.8905H21.9444V47.2793C21.956 48.6618 22.3573 49.0243 23.7222 48.9737H24.6111V61.6815C22.987 73.1218 20.6871 76.8048 10.8333 83.2848V87.0972C7.43492 87.0708 6.18779 87.7914 5.9444 91.3332C5.84896 93.6197 6.1866 94.6665 7.72218 95.9927C5.95601 96.68 5.49996 97.2635 5.49996 98.9579C5.49996 100.652 5.80115 101.289 6.83329 101.499H33.9444" stroke="#DAF1DE" stroke-width="3"/>
<path d="M33.9445 101.5H37.0556M35.2778 1.53158C35.4478 1.489 35.549 1.48995 35.7222 1.53158" stroke="#DAF1DE" stroke-width="3"/>
</g>
<defs>
<filter id="filter0_d_2307_441" x="0" y="0" width="70.9999" height="111" filterUnits="userSpaceOnUse" color-interpolation-filters="sRGB">
<feFlood flood-opacity="0" result="BackgroundImageFix"/>
<feColorMatrix in="SourceAlpha" type="matrix" values="0 0 0 0 0 0 0 0 0 0 0 0 0 0 0 0 0 0 127 0" result="hardAlpha"/>
<feOffset dy="4"/>
<feGaussianBlur stdDeviation="2"/>
<feComposite in2="hardAlpha" operator="out"/>
<feColorMatrix type="matrix" values="0 0 0 0 0 0 0 0 0 0 0 0 0 0 0 0 0 0 1 0"/>
<feBlend mode="normal" in2="BackgroundImageFix" result="effect1_dropShadow_2307_441"/>
<feBlend mode="normal" in="SourceGraphic" in2="effect1_dropShadow_2307_441" result="shape"/>
</filter>
</defs>
</svg>
