<svg width="97" height="103" viewBox="0 0 97 103" fill="none" xmlns="http://www.w3.org/2000/svg">
<g filter="url(#filter0_d_2307_454)">
<path d="M67.5704 15.6244L74.2124 17.6642L74.2734 17.6829L74.3335 17.7062C75.8458 18.2865 77.155 19.0362 78.1039 20.3747C78.9447 21.5607 79.3616 23.0201 79.6331 24.7388L90.5669 41.463L90.4606 42.1849C90.2301 43.7484 89.887 45.2139 89.0053 46.4669C88.1015 47.7512 86.802 48.5809 85.1471 49.2725L84.7561 49.4357L84.3326 49.4152C82.8304 49.3437 81.444 49.1489 80.2035 48.4704C78.9635 47.7921 78.0883 46.7531 77.3088 45.4438C76.0948 43.8228 75.1085 42.9116 74.0109 42.308C72.953 41.7264 71.6535 41.3549 69.6756 41.0601C69.2027 41.2321 68.8895 41.3816 68.6863 41.5124C68.5779 41.5823 68.5229 41.6323 68.4977 41.6589C68.4949 41.7019 68.4968 41.7964 68.531 41.9648C68.594 42.2747 68.7455 42.7164 69.0358 43.3471L76.8483 53.285C77.7252 54.2703 78.402 55.155 78.96 56.1596C79.5258 57.1782 79.9299 58.2474 80.3293 59.5499L80.4143 59.826V67.31H82.0434L82.0952 67.3128C82.7848 67.3508 83.8918 67.5076 84.6331 68.4787C85.2888 69.3376 85.2914 70.3991 85.2738 71.0249V77.1155H86.3463L86.803 77.399C87.495 77.8287 88.3793 78.3733 88.9776 79.2626C89.625 80.2252 89.7865 81.3263 89.7866 82.527C89.7866 83.5628 89.7626 84.4395 89.5388 85.2561C89.4576 85.5523 89.3524 85.8234 89.2337 86.0806C89.3108 86.2164 89.3812 86.3602 89.4426 86.5134C89.745 87.2671 89.7866 88.1003 89.7866 88.8311C89.7866 89.5669 89.7353 90.6049 89.1856 91.5061C88.543 92.5595 87.5002 93.0231 86.4184 93.1747L86.289 93.1924H9.84574L9.71538 93.1747C8.63371 93.023 7.59068 92.5594 6.94818 91.5061C6.39853 90.6049 6.34723 89.5669 6.34722 88.8311C6.34722 88.1003 6.3888 87.2671 6.69115 86.5134C6.75242 86.3607 6.82234 86.217 6.89918 86.0815C6.7804 85.8243 6.67712 85.5523 6.59593 85.2561C6.37216 84.4395 6.34722 83.5628 6.34722 82.527C6.34725 81.3263 6.50875 80.2252 7.15621 79.2626C7.75441 78.3734 8.63878 77.8287 9.33076 77.399L9.78749 77.1155H10.86V70.9709C10.8445 70.3393 10.8644 69.3134 11.5016 68.4787C12.2429 67.5079 13.349 67.3508 14.0386 67.3128L14.0904 67.31H15.7204V59.826L15.8045 59.5499C16.204 58.2472 16.6088 57.1783 17.1747 56.1596C17.7312 55.1577 18.4047 54.2746 19.2781 53.2924L27.0961 43.3499C27.3873 42.7175 27.5397 42.2752 27.6028 41.9648C27.6372 41.795 27.6381 41.7004 27.6351 41.6579C27.6095 41.6311 27.5544 41.5813 27.4474 41.5124C27.2441 41.3815 26.9307 41.2322 26.4572 41.0601C24.4799 41.3549 23.1806 41.7264 22.1229 42.308C21.0253 42.9116 20.039 43.8227 18.825 45.4438C18.0456 46.7528 17.1709 47.7921 15.9312 48.4704C14.6906 49.149 13.3035 49.3438 11.8012 49.4152L11.3787 49.4357L10.9876 49.2725C9.33246 48.5809 8.03239 47.7514 7.12847 46.4669C6.24677 45.2139 5.9037 43.7484 5.67322 42.1849L5.56689 41.463L16.4998 24.7406C16.7713 23.0211 17.1897 21.5612 18.0308 20.3747C18.9797 19.0363 20.288 18.2865 21.8003 17.7062L21.8603 17.6829L21.9223 17.6642L28.5643 15.6244V3.19244L31.6597 5.75924C39.8386 12.5409 44.9326 18.0172 48.0669 25.9168C51.2011 18.0172 56.2953 12.5409 64.4741 5.75924L67.5704 3.19244V15.6244ZM32.3513 18.4561L23.1002 21.2962C21.944 21.7451 21.4358 22.1385 21.1105 22.5973C20.7435 23.1152 20.4286 23.9681 20.1823 25.7144L20.1222 26.1387L9.53786 42.3276C9.72253 43.3048 9.9355 43.8562 10.2165 44.2555C10.5041 44.6642 10.9878 45.0863 12.0527 45.5734C13.1257 45.4961 13.7097 45.34 14.1255 45.1127C14.5566 44.8769 15.0137 44.4494 15.6344 43.3862L15.6889 43.2939L15.7518 43.209C17.1679 41.3067 18.5513 39.9216 20.3108 38.954C22.0475 37.999 23.9973 37.5365 26.3842 37.2099L26.8123 37.1511L27.2219 37.2854C28.7224 37.7755 30.4518 38.5123 31.1401 40.1964C31.4902 41.0529 31.4757 41.9299 31.313 42.7315C31.1537 43.5161 30.8305 44.3376 30.4291 45.1817L30.3376 45.3748L22.2209 55.6988L22.1839 55.7455L22.1442 55.7902C21.3528 56.6756 20.8597 57.34 20.4781 58.0268C20.1249 58.6627 19.8329 59.3806 19.5074 60.408V71.1303H14.647V80.9358H10.8738C10.4526 81.2153 10.3444 81.3262 10.2895 81.4078C10.2683 81.4394 10.1342 81.627 10.1342 82.527C10.1342 83.5921 10.1763 83.9829 10.2461 84.2376C10.3015 84.4397 10.3983 84.6525 10.8369 85.2887L12.1128 87.1402L10.1777 88.0645C10.1739 88.0876 10.1685 88.1144 10.1647 88.1456C10.1457 88.3021 10.1342 88.5201 10.1342 88.8311C10.1342 89.076 10.147 89.2489 10.1629 89.3721H38.8028C38.7924 89.1797 38.789 88.9977 38.789 88.8311C38.789 88.1003 38.8315 87.2671 39.1338 86.5134C39.1951 86.3608 39.2641 86.2169 39.3409 86.0815C39.2222 85.8243 39.1189 85.5523 39.0377 85.2561C38.8139 84.4395 38.789 83.5628 38.789 82.527C38.789 81.3263 38.9505 80.2252 39.598 79.2626C40.1961 78.3734 41.0805 77.8287 41.7725 77.399L42.2292 77.1155H43.3017V70.9709C43.2886 70.4166 43.3097 69.6429 43.6577 68.9394C43.803 68.6456 43.9829 68.4012 44.1856 68.1998V62.4227L44.2069 62.2799C44.631 59.4519 45.1737 57.4434 46.0107 55.322C45.6838 54.5845 45.3118 53.7927 44.88 52.8933L44.7551 52.6321L44.7117 52.3458C43.8855 46.8432 43.9568 43.9374 44.7135 39.8513C45.0872 37.0521 45.5461 34.5082 46.1133 32.1621C43.8346 23.4332 39.8797 17.9989 32.3513 11.3536V18.4561ZM63.7834 11.3526C56.2542 17.9985 52.2983 23.4332 50.0196 32.1631C50.5866 34.5087 51.0457 37.0518 51.4193 39.8504C52.1762 43.9371 52.2484 46.8427 51.4221 52.3458L51.3796 52.6321L51.2548 52.8933C50.8228 53.7929 50.4492 54.5843 50.1222 55.322C50.9593 57.4436 51.5037 59.4517 51.9278 62.2799L51.9491 62.4227V68.2007C52.1515 68.402 52.3309 68.646 52.4761 68.9394C52.8355 69.6661 52.8477 70.4677 52.8321 71.0249V77.1155H53.9045L54.3613 77.399C55.0532 77.8287 55.9376 78.3733 56.5358 79.2626C57.1833 80.2252 57.3448 81.3263 57.3448 82.527C57.3448 83.5628 57.3208 84.4395 57.097 85.2561C57.0159 85.5523 56.9107 85.8234 56.7919 86.0806C56.869 86.2164 56.9394 86.3602 57.0009 86.5134C57.3032 87.2671 57.3448 88.1003 57.3448 88.8311C57.3448 88.9977 57.3414 89.1797 57.3309 89.3721H85.9709C85.9867 89.2489 85.9996 89.076 85.9996 88.8311C85.9996 88.5201 85.9881 88.3021 85.9691 88.1456C85.9653 88.1143 85.959 88.0876 85.9552 88.0645L84.021 87.1402L85.2979 85.2887C85.7362 84.6527 85.8333 84.4397 85.8886 84.2376C85.9584 83.9829 85.9996 83.5919 85.9996 82.527C85.9996 81.6269 85.8655 81.4393 85.8443 81.4078C85.7894 81.3262 85.6811 81.2152 85.2599 80.9358H81.4868V71.1303H76.6274V60.4118C76.3014 59.3824 76.0093 58.6634 75.6557 58.0268C75.2741 57.34 74.7819 56.6756 73.9905 55.7902L73.9498 55.7455L73.9129 55.6988L65.9284 45.5426L65.7971 45.3748L65.7047 45.1817C65.3033 44.3377 64.9801 43.5161 64.8208 42.7315C64.6581 41.93 64.6436 41.0529 64.9937 40.1964C65.682 38.5123 67.4113 37.7755 68.9119 37.2854L69.3224 37.1511L69.7496 37.2099C72.1367 37.5365 74.0871 37.9989 75.8239 38.954C77.4734 39.8612 78.7915 41.1352 80.1166 42.8583L80.382 43.209L80.4458 43.2939L80.4994 43.3862C81.12 44.4494 81.5772 44.8769 82.0083 45.1127C82.4239 45.34 83.0078 45.496 84.0802 45.5734C85.1457 45.0861 85.6296 44.6642 85.9173 44.2555C86.1984 43.8561 86.4112 43.3044 86.5959 42.3267L76.0116 26.1387L75.9515 25.7144C75.7052 23.9679 75.3904 23.1152 75.0233 22.5973C74.698 22.1385 74.19 21.7451 73.0336 21.2962L63.7834 18.4561V11.3526Z" stroke="#DAF1DE" stroke-width="3" shape-rendering="crispEdges"/>
</g>
<defs>
<filter id="filter0_d_2307_454" x="0" y="0" width="96.1338" height="102.692" filterUnits="userSpaceOnUse" color-interpolation-filters="sRGB">
<feFlood flood-opacity="0" result="BackgroundImageFix"/>
<feColorMatrix in="SourceAlpha" type="matrix" values="0 0 0 0 0 0 0 0 0 0 0 0 0 0 0 0 0 0 127 0" result="hardAlpha"/>
<feOffset dy="4"/>
<feGaussianBlur stdDeviation="2"/>
<feComposite in2="hardAlpha" operator="out"/>
<feColorMatrix type="matrix" values="0 0 0 0 0 0 0 0 0 0 0 0 0 0 0 0 0 0 0.81 0"/>
<feBlend mode="normal" in2="BackgroundImageFix" result="effect1_dropShadow_2307_454"/>
<feBlend mode="normal" in="SourceGraphic" in2="effect1_dropShadow_2307_454" result="shape"/>
</filter>
</defs>
</svg>

