<svg width="155" height="178" viewBox="0 0 155 178" fill="none" xmlns="http://www.w3.org/2000/svg">
<path d="M70.667 101.273L73.2579 108.619H73.3602L75.9511 101.273H77.059L73.8545 110H72.7636L69.559 101.273H70.667ZM83.1911 103.455C83.14 103.023 82.9326 102.688 82.569 102.449C82.2053 102.21 81.7593 102.091 81.2309 102.091C80.8445 102.091 80.5065 102.153 80.2167 102.278C79.9298 102.403 79.7053 102.575 79.5434 102.794C79.3843 103.013 79.3048 103.261 79.3048 103.54C79.3048 103.773 79.3602 103.973 79.4709 104.141C79.5846 104.305 79.7295 104.443 79.9056 104.554C80.0817 104.662 80.2664 104.751 80.4596 104.822C80.6528 104.891 80.8303 104.946 80.9923 104.989L81.8786 105.227C82.1059 105.287 82.3587 105.369 82.6371 105.474C82.9184 105.58 83.1869 105.723 83.4425 105.905C83.7011 106.084 83.9141 106.314 84.0817 106.595C84.2494 106.876 84.3332 107.222 84.3332 107.631C84.3332 108.102 84.2096 108.528 83.9624 108.909C83.7181 109.29 83.3602 109.592 82.8886 109.817C82.4198 110.041 81.8502 110.153 81.1798 110.153C80.5548 110.153 80.0136 110.053 79.5562 109.851C79.1016 109.649 78.7437 109.368 78.4823 109.007C78.2238 108.646 78.0775 108.227 78.0434 107.75H79.1343C79.1627 108.08 79.2735 108.352 79.4667 108.568C79.6627 108.781 79.9099 108.94 80.2082 109.045C80.5093 109.148 80.8332 109.199 81.1798 109.199C81.5832 109.199 81.9454 109.134 82.2664 109.003C82.5874 108.869 82.8417 108.685 83.0292 108.449C83.2167 108.21 83.3104 107.932 83.3104 107.614C83.3104 107.324 83.2295 107.088 83.0675 106.906C82.9056 106.724 82.6925 106.577 82.4283 106.463C82.1641 106.349 81.8786 106.25 81.5718 106.165L80.4979 105.858C79.8161 105.662 79.2763 105.382 78.8786 105.018C78.4809 104.655 78.282 104.179 78.282 103.591C78.282 103.102 78.4141 102.676 78.6783 102.312C78.9454 101.946 79.3033 101.662 79.7522 101.46C80.2039 101.256 80.7082 101.153 81.265 101.153C81.8275 101.153 82.3275 101.254 82.765 101.456C83.2025 101.655 83.5491 101.928 83.8048 102.274C84.0633 102.621 84.1996 103.014 84.2138 103.455H83.1911Z" fill="#DAF1DE"/>
<g filter="url(#filter0_d_2307_298)">
<path d="M67.5643 5.90405L69.5339 6.25135L69.8527 7.32298L68.8108 13.2318L74.2273 14.1869L75.0384 15.3453L74.5175 18.2998L73.359 19.1109L67.9426 18.1559L67.1612 22.5875C68.8675 24.7107 69.4247 26.0261 69.6529 28.6117C76.4283 30.4631 79.7393 32.3019 84.2811 37.7913C75.7536 46.9986 72.0446 52.9174 69.1368 66.0915C69.1368 66.0915 70.1216 66.2651 72.0912 66.6124C74.0608 66.9597 74.9247 67.6198 74.4379 70.5802C73.9024 73.8366 73.0971 74.9004 70.702 74.4909L69.7172 74.3172L68.849 79.2413L66.8794 78.894C66.8794 78.894 62.1007 97.1225 61.0621 111.885C60.0236 126.648 62.2364 128.53 71.5513 141.659L70.8567 145.598L75.8105 152.056L71.9879 156.459L74.3345 160.427L71.2647 163.44L42.7053 158.404" stroke="#DAF1DE" stroke-width="3"/>
<path d="M67.0719 5.8172L65.1023 5.4699L64.4362 6.36789L63.3943 12.2767L57.9779 11.3217L56.8194 12.1328L56.2985 15.0873L57.1097 16.2457L62.5261 17.2008L61.7447 21.6324C59.4151 23.044 58.4416 24.0894 57.3428 26.4411C50.3428 25.8635 46.6026 26.4589 40.4572 30.064C45.3213 41.6326 46.7823 48.463 45.009 61.8371C45.009 61.8371 44.0242 61.6634 42.0545 61.3161C40.0849 60.9688 39.0474 61.2936 38.4923 64.242C37.8818 67.4852 38.2746 68.7603 40.6654 69.1946L41.6502 69.3682L40.7819 74.2923L42.7515 74.6396C42.7515 74.6396 41.0075 93.4032 36.9343 107.631C32.8612 121.858 30.1379 122.87 16.8945 132.021L16.1999 135.961L9.33598 140.335L11.4222 145.78L7.85997 148.706L9.71422 152.587L38.2736 157.623" stroke="#DAF1DE" stroke-width="3"/>
<path d="M38.2736 157.623L42.7052 158.404" stroke="#DAF1DE" stroke-width="3"/>
<path d="M67.0719 5.8172L67.5643 5.90402" stroke="#DAF1DE" stroke-width="3"/>
</g>
<g filter="url(#filter1_d_2307_298)">
<path d="M87.7357 5.8172L89.7053 5.4699L90.3714 6.36789L91.4133 12.2767L96.8297 11.3217L97.9882 12.1328L98.5091 15.0873L97.698 16.2457L92.2815 17.2008L93.0629 21.6324C95.3925 23.044 96.366 24.0894 97.4648 26.4411C104.465 25.8635 108.205 26.4589 114.35 30.064C109.486 41.6326 108.025 48.463 109.799 61.8371C109.799 61.8371 110.783 61.6634 112.753 61.3161C114.723 60.9688 115.76 61.2936 116.315 64.242C116.926 67.4852 116.533 68.7603 114.142 69.1946L113.157 69.3682L114.026 74.2923L112.056 74.6396C112.056 74.6396 113.8 93.4032 117.873 107.631C121.946 121.858 124.67 122.87 137.913 132.021L138.608 135.961L145.472 140.335L143.385 145.78L146.948 148.706L145.093 152.587L116.534 157.623" stroke="#DAF1DE" stroke-width="3"/>
<path d="M87.2433 5.90405L85.2737 6.25135L84.9549 7.32298L85.9968 13.2318L80.5804 14.1869L79.7692 15.3453L80.2901 18.2998L81.4486 19.1109L86.865 18.1559L87.6465 22.5875C85.9402 24.7107 85.3829 26.0261 85.1547 28.6117C78.3793 30.4631 75.0683 32.3019 70.5265 37.7913C79.054 46.9986 82.763 52.9174 85.6708 66.0915C85.6708 66.0915 84.686 66.2651 82.7164 66.6124C80.7468 66.9597 79.8829 67.6198 80.3698 70.5802C80.9053 73.8366 81.7105 74.9004 84.1056 74.4909L85.0904 74.3172L85.9586 79.2413L87.9283 78.894C87.9283 78.894 92.7069 97.1225 93.7455 111.885C94.784 126.648 92.5713 128.53 83.2563 141.659L83.9509 145.598L78.9971 152.056L82.8198 156.459L80.4731 160.427L83.5429 163.44L112.102 158.404" stroke="#DAF1DE" stroke-width="3"/>
<path d="M112.102 158.404L116.534 157.623" stroke="#DAF1DE" stroke-width="3"/>
<path d="M87.2433 5.90405L87.7357 5.81723" stroke="#DAF1DE" stroke-width="3"/>
</g>
<defs>
<filter id="filter0_d_2307_298" x="0" y="3.83173" width="92.274" height="173.219" filterUnits="userSpaceOnUse" color-interpolation-filters="sRGB">
<feFlood flood-opacity="0" result="BackgroundImageFix"/>
<feColorMatrix in="SourceAlpha" type="matrix" values="0 0 0 0 0 0 0 0 0 0 0 0 0 0 0 0 0 0 127 0" result="hardAlpha"/>
<feOffset dy="6"/>
<feGaussianBlur stdDeviation="3"/>
<feComposite in2="hardAlpha" operator="out"/>
<feColorMatrix type="matrix" values="0 0 0 0 0 0 0 0 0 0 0 0 0 0 0 0 0 0 1 0"/>
<feBlend mode="normal" in2="BackgroundImageFix" result="effect1_dropShadow_2307_298"/>
<feBlend mode="normal" in="SourceGraphic" in2="effect1_dropShadow_2307_298" result="shape"/>
</filter>
<filter id="filter1_d_2307_298" x="62.5336" y="3.83173" width="92.274" height="173.219" filterUnits="userSpaceOnUse" color-interpolation-filters="sRGB">
<feFlood flood-opacity="0" result="BackgroundImageFix"/>
<feColorMatrix in="SourceAlpha" type="matrix" values="0 0 0 0 0 0 0 0 0 0 0 0 0 0 0 0 0 0 127 0" result="hardAlpha"/>
<feOffset dy="6"/>
<feGaussianBlur stdDeviation="3"/>
<feComposite in2="hardAlpha" operator="out"/>
<feColorMatrix type="matrix" values="0 0 0 0 0 0 0 0 0 0 0 0 0 0 0 0 0 0 1 0"/>
<feBlend mode="normal" in2="BackgroundImageFix" result="effect1_dropShadow_2307_298"/>
<feBlend mode="normal" in="SourceGraphic" in2="effect1_dropShadow_2307_298" result="shape"/>
</filter>
</defs>
</svg>
